
		<svg xmlns="http://www.w3.org/2000/svg" xmlns:xlink="http://www.w3.org/1999/xlink" version="1.1" width="3200" height="3100">
			<rect fill="#000000" width="3200" height="3100"/>
			<g transform="scale(10) translate(10, 10)">
				<defs id="SvgjsDefs4287"><linearGradient id="SvgjsLinearGradient4292"><stop id="SvgjsStop4293" stop-color="#b88746" offset="0"></stop><stop id="SvgjsStop4294" stop-color="#fdf5a6" offset="1"></stop></linearGradient><linearGradient id="SvgjsLinearGradient4295"><stop id="SvgjsStop4296" stop-color="#8f5e25" offset="0"></stop><stop id="SvgjsStop4297" stop-color="#fbf4a1" offset="0.5"></stop><stop id="SvgjsStop4298" stop-color="#8f5e25" offset="1"></stop></linearGradient><linearGradient id="SvgjsLinearGradient4299"><stop id="SvgjsStop4300" stop-color="#8f5e25" offset="0"></stop><stop id="SvgjsStop4301" stop-color="#fbf4a1" offset="0.5"></stop><stop id="SvgjsStop4302" stop-color="#8f5e25" offset="1"></stop></linearGradient></defs><g id="SvgjsG4288" featureKey="root" fill="#000000"></g><g id="SvgjsG4289" featureKey="container1" fill="url(#SvgjsLinearGradient4292)" transform="matrix(2.8165392315702005,0,0,2.8165392315702005,0.0770728044540382,0.00017610297674211818)"><path xmlns="http://www.w3.org/2000/svg" d="M105.9 44.1a51 51 0 0 0-1.5-6.8c-.3-1.1-.7-2.2-1.1-3.3l-.6-1.6-.7-1.6A51.5 51.5 0 0 0 54.9 0a50.8 50.8 0 0 0-9.6.9 51.3 51.3 0 0 0-40.8 30l-.7 1.6-.6 1.6c-.4 1.1-.8 2.2-1.1 3.3a50.6 50.6 0 0 0-1.6 6.7 51.9 51.9 0 0 0-.2 13.2 50.2 50.2 0 0 0 2.9 12.2 52.1 52.1 0 0 0 5.4 10.4 51.5 51.5 0 0 0 14.5 14.3 50.3 50.3 0 0 0 14.3 6.5 49 49 0 0 0 7.3 1.4 49.1 49.1 0 0 0 6.5.9h7.3a49.1 49.1 0 0 0 10.1-1.7 50.9 50.9 0 0 0 14.5-6.5 52 52 0 0 0 14.7-14.6 52.6 52.6 0 0 0 5.4-10.5 51.2 51.2 0 0 0 3-12.3 52.5 52.5 0 0 0-.3-13.3zm-68.4 56.5a50.2 50.2 0 0 1-14.3-6.5A50.9 50.9 0 0 1 .6 57.3a51.7 51.7 0 0 1 .2-13.1 50.1 50.1 0 0 1 1.4-6.7c.3-1.1.7-2.2 1.1-3.3l.6-1.6.7-1.6A50.5 50.5 0 0 1 42.8 1.4a51.1 51.1 0 0 0-16.4 7.2 51.8 51.8 0 0 0-18.6 22L7 32.3 6.4 34c-.4 1.1-.8 2.2-1.1 3.3a51.1 51.1 0 0 0-1.5 6.8 52.5 52.5 0 0 0-.2 13.4 51.1 51.1 0 0 0 3 12.2A52.7 52.7 0 0 0 12 80.2a52 52 0 0 0 14.6 14.5 50.9 50.9 0 0 0 14.5 6.5l2.7.7a49.1 49.1 0 0 1-6.3-1.3zm7 1.4l-3.3-.8a50.9 50.9 0 0 1-14.5-6.6 51.9 51.9 0 0 1-14.6-14.5 52.5 52.5 0 0 1-5.4-10.4 51.7 51.7 0 0 1-2.9-12.3A52.3 52.3 0 0 1 4 44.1a50.9 50.9 0 0 1 1.5-6.7c.3-1.1.7-2.2 1.1-3.3l.6-1.6.7-1.6A51.3 51.3 0 0 1 44 1.3a49.8 49.8 0 0 1 7-.5h-.2l-3.3.4a50.3 50.3 0 0 0-6.7 1.4l-3.3 1.2-1.6.6-1.6.7A50.4 50.4 0 0 0 6.5 36.9 52.3 52.3 0 0 0 5 44.2a55.7 55.7 0 0 0-.5 7.4 51.4 51.4 0 0 0 30 46.1l1.6.7 1.6.6 3.3 1.1a50 50 0 0 0 6.6 1.5l3.3.4h-3.5zm57.1-57.9a50.5 50.5 0 0 0-1.5-6.7c-.3-1.1-.7-2.2-1.1-3.3l-.6-1.6-.7-1.6A51.2 51.2 0 0 0 79.3 9l-3.7-2.2a49.8 49.8 0 0 1 6.7 3.7 50.4 50.4 0 0 1 14.1 13.9 47.7 47.7 0 0 1 4.1 7.3 44.2 44.2 0 0 1 2.4 6.7 47.5 47.5 0 0 1 1.7 9.8c.1 1.1.1 2 .1 2.6v1.8c0 .6 0 1.5-.1 2.6a47.5 47.5 0 0 1-1.7 9.8 43.8 43.8 0 0 1-2.4 6.7 47.7 47.7 0 0 1-4.1 7.3 50.6 50.6 0 0 1-14.1 13.7 50.1 50.1 0 0 1-8.5 4.5 49.1 49.1 0 0 0 5.2-3 51.5 51.5 0 0 0 14.5-14.3 52.1 52.1 0 0 0 5.4-10.4 50.3 50.3 0 0 0 2.9-12.2 51.9 51.9 0 0 0-.3-13.2zM79.1 9.3A50.9 50.9 0 0 1 97.4 31l.7 1.6.6 1.6c.4 1.1.8 2.2 1.1 3.3a50.2 50.2 0 0 1 1.4 6.6 51.1 51.1 0 0 1-8 35.6 51.2 51.2 0 0 1-14.3 14.4 49.3 49.3 0 0 1-6.9 3.8 50.8 50.8 0 0 1-11.5 2.8l-3.1.3h-6.5l-3.2-.3a49 49 0 0 1-6.5-1.3l-3.2-1-1.6-.6-1.6-.6a48.9 48.9 0 0 1-21.4-18.1A49.9 49.9 0 0 1 7.3 66a51 51 0 0 1-1.5-7.1 54.6 54.6 0 0 1-.5-7.3A49.8 49.8 0 0 1 35 6.6l1.6-.7 1.4-.6 3.2-1a49 49 0 0 1 6.5-1.4l3.2-.4h6.4l3.1.3a50.2 50.2 0 0 1 11.5 2.5 49.4 49.4 0 0 1 7.2 4zM106 57.4a51.5 51.5 0 0 1-3 12.3 52.5 52.5 0 0 1-5.4 10.5 51.9 51.9 0 0 1-14.5 14.4 50.9 50.9 0 0 1-14.5 6.6 49.1 49.1 0 0 1-10.1 1.7h-7.3a48.7 48.7 0 0 1-6-.8l2.2.2h7.2l2.2-.2h.6l3.2-.3A48.8 48.8 0 0 0 72.7 99 51.6 51.6 0 0 0 83 93.6a50.3 50.3 0 0 0 14-14.5 51.2 51.2 0 0 0 6.2-14.2 47.7 47.7 0 0 0 1.6-9.8c.1-1.2.1-2 .1-2.6v-1.8c0-.6 0-1.5-.1-2.6a47.8 47.8 0 0 0-1.6-9.8A51.2 51.2 0 0 0 97 24 50.5 50.5 0 0 0 83 9.5a51.7 51.7 0 0 0-10.3-5.4 49.3 49.3 0 0 0-12.1-3L57.4.8H56l-5-.2-4.4.2a50.7 50.7 0 0 1 8.3-.7 51.5 51.5 0 0 1 47 30.6l.7 1.6.6 1.6c.4 1.1.8 2.2 1.1 3.3a51 51 0 0 1 1.5 6.7 52.3 52.3 0 0 1 .1 13.5z" fill=""></path></g><g id="SvgjsG4290" featureKey="symbol1" fill="url(#SvgjsLinearGradient4295)" transform="matrix(0.7446807906227282,0,0,0.7446807906227282,107.76595833831476,73.82983359236749)"><g xmlns="http://www.w3.org/2000/svg" transform="translate(0,-952.36218)"><path style="text-indent:0;text-transform:none;direction:ltr;block-progression:tb;baseline-shift:baseline;color:;enable-background:accumulate;" d="m 33.98283,967.36224 c -8.26221,0 -15.00301,6.7707 -15.00301,15.0312 0,8.2606 6.7408,14.9688 15.00301,14.9688 0.66693,0 1.32472,-0.072 1.96914,-0.1563 l 7.439,14.37496 10.5021,-2.9375 1.31277,-1.2188 -10.34583,-14.78116 c 2.54606,-2.6845 4.12583,-6.2707 4.12583,-10.25 0,-8.2605 -6.74081,-15.0312 -15.00301,-15.0312 z m 0,4 c 6.10004,0 11.0022,4.9324 11.0022,11.0312 0,6.0988 -4.90216,10.9688 -11.0022,10.9688 -6.10005,0 -11.00221,-4.87 -11.00221,-10.9688 0,-6.0988 4.90216,-11.0312 11.00221,-11.0312 z m 49.509933,12.8124 -28.599493,26.24996 -23.00461,6.4063 c -1.19804,-3.0316 -3.37349,-5.6861 -6.40754,-7.4375 -7.15528,-4.1303 -16.3417499,-1.6852 -20.4728599,5.4688 -4.13109996,7.1538 -1.68543,16.3696 5.4698499,20.5 7.15528,4.1302 16.34176,1.6538 20.47286,-5.5 0.67367,-1.1667 1.1683,-2.3805 1.5003,-3.625 l 27.41175,-2.375 29.505923,-33.90626 c 1.03786,-1.7075 0.81134,-3.3321 -0.65638,-4.9063 -1.56313,-1.7052 -3.40435,-1.9112 -5.2198,-0.875 z M 23.48072,1012.8622 c 5.28279,3.0494 7.08208,9.7182 4.03206,15 -3.05002,5.2817 -9.75148,7.0806 -15.03427,4.0312 -5.2827999,-3.0494 -7.0820799,-9.7495 -4.0320599,-15.0312 3.8927799,-5.1942 9.4755199,-6.9156 15.0342699,-4 z m 46.50933,2.4062 -8.40793,9.6875 31.381293,6.4063 c 1.9884,0.062 3.26677,-0.9377 3.87578,-3 0.40602,-1.9063 0.13385,-3.9272 -1.87538,-5 z" fill="url(#SvgjsLinearGradient4295)" fill-opacity="1" stroke="none" marker="none" visibility="visible" display="inline" overflow="visible"></path></g></g><g id="SvgjsG4291" featureKey="text1" fill="url(#SvgjsLinearGradient4299)" transform="matrix(2.69344835775175,0,0,2.69344835775175,49.19196530002404,128.287846054699)"><path d="M5.28 22.58 c0.52 -0.34 1.12 0.52 0.64 0.86 c-0.34 0.26 -0.94 0.68 -2.14 0.68 c-1.66 0 -2.6 -0.94 -2.6 -3.06 l0 -4.72 l-0.88 0 l0 -1.18 c1.24 0 1.7 -1.18 2.24 -2.18 c0.26 -0.48 1.06 -0.38 1.06 0.08 l0 2 l2.1 0 l0 0.72 c0 0.36 -0.16 0.56 -0.54 0.56 l-1.56 0 l0 5.16 c0 0.9 0.12 1.48 0.72 1.48 c0.4 0 0.7 -0.22 0.96 -0.4 z M17 21.82 c0 0.66 0.18 1.1 1.2 0.86 l-0.26 1.12 c-0.44 0.16 -1.2 0.2 -1.58 0.2 c-1.16 0 -1.72 -0.66 -1.72 -1.44 l0 -3.78 c0 -1.48 -0.16 -2.38 -1.38 -2.38 c-1.32 0 -2.34 1.28 -2.72 1.72 l0 4.32 c0 0.46 0.32 0.56 1 0.56 l0 1 l-4.3 0 l0 -1 c0.64 0 0.94 -0.1 0.94 -0.56 l0 -9.38 c0 -0.66 -0.42 -0.88 -1.18 -0.78 l0 -1.02 l3 -0.34 c0.74 -0.08 0.6 0.6 0.5 1.48 l0 3.88 l-0.12 0.72 c0.36 -0.62 1.44 -2.24 3.32 -2.24 c1.84 0 3.28 0.72 3.3 3.52 l0 3.54 z M28 18.58 c0 0.76 -0.38 1.38 -1.12 1.38 l-5.1 0 c0 1.48 0.8 2.82 2.48 2.82 c1.14 0 1.86 -0.64 2.34 -1.18 l0.88 0.84 c-0.5 0.66 -1.58 1.68 -3.48 1.68 c-2.62 0 -4.8 -1.92 -4.8 -4.68 c0 -2.92 2.28 -4.64 4.52 -4.64 s4.28 1.74 4.28 3.78 z M25.6 18.759999999999998 c0 -1.76 -0.54 -2.82 -1.88 -2.82 c-1.28 0 -1.94 1.06 -1.94 2.82 l3.82 0 z  M41.3 12.04 c0.32 0.52 0.06 1.22 -0.5 1.44 c-0.64 0.26 -1.12 -0.12 -1.3 -0.46 c-0.32 -0.66 -0.66 -1.24 -1.34 -1.24 c-1.06 0 -1.28 1.2 -1.28 2.72 l0 0.36 l2.8 0 c-0.46 1.3 -0.48 1.44 -0.86 1.44 l-1.94 0 l0 6.16 c0 0.46 0.16 0.56 1.04 0.56 l0 0.98 l-4.32 0 l0 -0.98 c0.76 0 0.92 -0.1 0.92 -0.56 l0 -6.16 l-0.66 0 c-0.12 0 -0.2 -0.08 -0.2 -0.2 l0 -1.24 l0.86 0 l0 -0.22 c0 -2.7 1.48 -3.98 3.52 -3.98 c1.6 0 2.72 0.5 3.26 1.38 z M52.44 14.98 l0 0.8 l-0.28 0.12 c-0.36 0.16 -0.7 0.22 -0.84 0.54 l-4.18 9.24 c-0.76 1.7 -1.3 2.62 -2.88 2.62 c-1.44 0 -2.56 -0.6 -2.56 -1.76 c0 -0.7 0.42 -1.16 1.22 -1.16 c1.58 0 0.76 1.76 1.5 1.76 c0.64 0 1.02 -0.44 1.46 -1.5 l0.46 -1.1 l-4 -8.1 c-0.18 -0.36 -0.36 -0.44 -0.66 -0.54 l-0.36 -0.12 l0 -0.8 l4.56 0 l0 0.8 l-0.5 0.1 c-0.32 0.06 -0.6 0.22 -0.44 0.56 l2.6 5.28 l2.22 -5.28 c0.12 -0.3 -0.18 -0.5 -0.48 -0.56 l-0.56 -0.1 l0 -0.8 l3.72 0 z M62.82 22.8 l0.54 0 l0 1.2 c-1.58 -0.1 -3.14 -0.1 -4.72 0 l0 -1.2 l0.54 0.02 c0.38 -0.04 0.66 -0.12 0.3 -0.56 l-1.62 -1.9 l-1.74 1.8 c-0.34 0.34 -0.1 0.62 0.26 0.66 l0.42 -0.02 l0 1.2 c-1.26 -0.1 -2.5 -0.1 -3.76 0 l0 -1.2 l0.54 0 c0.3 -0.04 0.46 -0.16 0.94 -0.66 l2.56 -2.68 l-2.32 -2.72 c-0.52 -0.62 -0.8 -0.7 -1.18 -0.8 l-0.4 -0.1 l0 -0.84 c1.32 0.08 3.4 0.08 4.7 0 l0 0.84 l-0.52 0.08 c-0.26 0.04 -0.42 0.22 -0.1 0.6 l1.28 1.54 l1.38 -1.42 c0.48 -0.5 0.18 -0.66 -0.1 -0.72 l-0.42 -0.08 l0 -0.84 c1.08 0.08 2.62 0.08 3.72 0 l0 0.84 l-0.44 0.1 c-0.4 0.08 -0.76 0.28 -1.48 1.06 l-1.88 2 l2.66 3.18 c0.42 0.5 0.62 0.58 0.84 0.62 z M73.94 22.8 l0.54 0 l0 1.2 c-1.58 -0.1 -3.14 -0.1 -4.72 0 l0 -1.2 l0.54 0.02 c0.38 -0.04 0.66 -0.12 0.3 -0.56 l-1.62 -1.9 l-1.74 1.8 c-0.34 0.34 -0.1 0.62 0.26 0.66 l0.42 -0.02 l0 1.2 c-1.26 -0.1 -2.5 -0.1 -3.76 0 l0 -1.2 l0.54 0 c0.3 -0.04 0.46 -0.16 0.94 -0.66 l2.56 -2.68 l-2.32 -2.72 c-0.52 -0.62 -0.8 -0.7 -1.18 -0.8 l-0.4 -0.1 l0 -0.84 c1.32 0.08 3.4 0.08 4.7 0 l0 0.84 l-0.52 0.08 c-0.26 0.04 -0.42 0.22 -0.1 0.6 l1.28 1.54 l1.38 -1.42 c0.48 -0.5 0.18 -0.66 -0.1 -0.72 l-0.42 -0.08 l0 -0.84 c1.08 0.08 2.62 0.08 3.72 0 l0 0.84 l-0.44 0.1 c-0.4 0.08 -0.76 0.28 -1.48 1.06 l-1.88 2 l2.66 3.18 c0.42 0.5 0.62 0.58 0.84 0.62 z"></path></g>
			</g>
		</svg>
	